<mxfile host="app.diagrams.net" modified="2024-05-23T12:36:16.723Z" agent="Mozilla/5.0 (Windows NT 10.0; Win64; x64) AppleWebKit/537.36 (KHTML, like Gecko) Chrome/124.0.0.0 Safari/537.36" etag="-vBATjynf3U09QYzZzTr" version="24.3.0" type="device">
  <diagram name="State Diagram" id="d_gJmiunL9T3221WsLjy">
    <mxGraphModel dx="1303" dy="641" grid="0" gridSize="10" guides="1" tooltips="1" connect="1" arrows="1" fold="1" page="1" pageScale="1" pageWidth="827" pageHeight="1169" math="0" shadow="0">
      <root>
        <mxCell id="0" />
        <mxCell id="1" parent="0" />
        <mxCell id="4eg79hw1ZHfpP1PTjSrI-3" style="edgeStyle=orthogonalEdgeStyle;rounded=0;orthogonalLoop=1;jettySize=auto;html=1;endArrow=open;endFill=0;" parent="1" source="4eg79hw1ZHfpP1PTjSrI-1" target="4eg79hw1ZHfpP1PTjSrI-2" edge="1">
          <mxGeometry relative="1" as="geometry" />
        </mxCell>
        <mxCell id="4eg79hw1ZHfpP1PTjSrI-5" value="Order&lt;div&gt;created&lt;/div&gt;" style="edgeLabel;html=1;align=center;verticalAlign=middle;resizable=0;points=[];" parent="4eg79hw1ZHfpP1PTjSrI-3" vertex="1" connectable="0">
          <mxGeometry x="-0.0811" relative="1" as="geometry">
            <mxPoint as="offset" />
          </mxGeometry>
        </mxCell>
        <mxCell id="4eg79hw1ZHfpP1PTjSrI-1" value="" style="ellipse;shape=doubleEllipse;html=1;dashed=0;whiteSpace=wrap;aspect=fixed;perimeterSpacing=8;fillColor=#1A1A1A;shadow=1;" parent="1" vertex="1">
          <mxGeometry x="324" y="40" width="32" height="32" as="geometry" />
        </mxCell>
        <mxCell id="4eg79hw1ZHfpP1PTjSrI-11" style="rounded=0;orthogonalLoop=1;jettySize=auto;html=1;entryX=0;entryY=0;entryDx=0;entryDy=0;endArrow=open;endFill=0;" parent="1" target="4eg79hw1ZHfpP1PTjSrI-6" edge="1">
          <mxGeometry relative="1" as="geometry">
            <mxPoint x="381" y="196" as="sourcePoint" />
          </mxGeometry>
        </mxCell>
        <mxCell id="4eg79hw1ZHfpP1PTjSrI-12" value="Check&lt;div&gt;all Postitions&lt;/div&gt;" style="edgeLabel;html=1;align=center;verticalAlign=middle;resizable=0;points=[];" parent="4eg79hw1ZHfpP1PTjSrI-11" vertex="1" connectable="0">
          <mxGeometry x="-0.1733" y="-7" relative="1" as="geometry">
            <mxPoint x="32" y="-23" as="offset" />
          </mxGeometry>
        </mxCell>
        <mxCell id="4eg79hw1ZHfpP1PTjSrI-2" value="Received" style="ellipse;whiteSpace=wrap;html=1;aspect=fixed;perimeterSpacing=8;fillColor=#dae8fc;strokeColor=#6c8ebf;shadow=1;" parent="1" vertex="1">
          <mxGeometry x="300" y="140" width="80" height="80" as="geometry" />
        </mxCell>
        <mxCell id="4eg79hw1ZHfpP1PTjSrI-18" style="rounded=0;orthogonalLoop=1;jettySize=auto;html=1;entryX=0.698;entryY=0.939;entryDx=0;entryDy=0;startArrow=open;startFill=0;endArrow=none;endFill=0;entryPerimeter=0;" parent="1" edge="1">
          <mxGeometry relative="1" as="geometry">
            <mxPoint x="454" y="486" as="sourcePoint" />
            <mxPoint x="442.00800000000004" y="422.144" as="targetPoint" />
          </mxGeometry>
        </mxCell>
        <mxCell id="4eg79hw1ZHfpP1PTjSrI-6" value="Partially&lt;div&gt;Ready&lt;/div&gt;" style="ellipse;whiteSpace=wrap;html=1;aspect=fixed;perimeterSpacing=8;shadow=1;" parent="1" vertex="1">
          <mxGeometry x="414" y="220" width="80" height="80" as="geometry" />
        </mxCell>
        <mxCell id="4eg79hw1ZHfpP1PTjSrI-22" style="rounded=0;orthogonalLoop=1;jettySize=auto;html=1;entryX=1;entryY=0.5;entryDx=0;entryDy=0;endArrow=open;endFill=0;" parent="1" source="4eg79hw1ZHfpP1PTjSrI-7" target="4eg79hw1ZHfpP1PTjSrI-8" edge="1">
          <mxGeometry relative="1" as="geometry" />
        </mxCell>
        <mxCell id="4eg79hw1ZHfpP1PTjSrI-25" value="Parcel&lt;br&gt;shipped" style="edgeLabel;html=1;align=center;verticalAlign=middle;resizable=0;points=[];" parent="4eg79hw1ZHfpP1PTjSrI-22" vertex="1" connectable="0">
          <mxGeometry x="-0.0042" y="2" relative="1" as="geometry">
            <mxPoint as="offset" />
          </mxGeometry>
        </mxCell>
        <mxCell id="4eg79hw1ZHfpP1PTjSrI-7" value="&lt;div&gt;Ready&lt;/div&gt;" style="ellipse;whiteSpace=wrap;html=1;aspect=fixed;perimeterSpacing=8;fillColor=#d5e8d4;strokeColor=#82b366;shadow=1;" parent="1" vertex="1">
          <mxGeometry x="419" y="490" width="80" height="80" as="geometry" />
        </mxCell>
        <mxCell id="4eg79hw1ZHfpP1PTjSrI-8" value="&lt;div&gt;Shipped&lt;/div&gt;" style="ellipse;whiteSpace=wrap;html=1;aspect=fixed;perimeterSpacing=8;fillColor=#f5f5f5;fontColor=#333333;strokeColor=#666666;dashed=1;shadow=1;" parent="1" vertex="1">
          <mxGeometry x="189" y="560" width="80" height="80" as="geometry" />
        </mxCell>
        <mxCell id="4eg79hw1ZHfpP1PTjSrI-9" value="&lt;div&gt;Completed&lt;/div&gt;" style="ellipse;whiteSpace=wrap;html=1;aspect=fixed;perimeterSpacing=8;fillColor=#f5f5f5;fontColor=#333333;strokeColor=#666666;dashed=1;shadow=1;" parent="1" vertex="1">
          <mxGeometry x="149" y="340" width="80" height="80" as="geometry" />
        </mxCell>
        <mxCell id="4eg79hw1ZHfpP1PTjSrI-10" value="" style="points=[[0.145,0.145,0],[0.5,0,0],[0.855,0.145,0],[1,0.5,0],[0.855,0.855,0],[0.5,1,0],[0.145,0.855,0],[0,0.5,0]];shape=mxgraph.bpmn.event;html=1;verticalLabelPosition=bottom;labelBackgroundColor=#ffffff;verticalAlign=top;align=center;perimeter=ellipsePerimeter;outlineConnect=0;aspect=fixed;outline=end;symbol=terminate2;perimeterSpacing=8;shadow=1;" parent="1" vertex="1">
          <mxGeometry x="39" y="364" width="32" height="32" as="geometry" />
        </mxCell>
        <mxCell id="4eg79hw1ZHfpP1PTjSrI-13" style="edgeStyle=orthogonalEdgeStyle;rounded=0;orthogonalLoop=1;jettySize=auto;html=1;exitX=1;exitY=0.5;exitDx=0;exitDy=0;entryX=0.715;entryY=0.104;entryDx=0;entryDy=0;endArrow=open;endFill=0;curved=1;entryPerimeter=0;" parent="1" source="4eg79hw1ZHfpP1PTjSrI-6" target="4eg79hw1ZHfpP1PTjSrI-6" edge="1">
          <mxGeometry relative="1" as="geometry">
            <mxPoint x="494" y="270" as="sourcePoint" />
            <mxPoint x="568" y="310" as="targetPoint" />
            <Array as="points">
              <mxPoint x="530" y="260" />
              <mxPoint x="530" y="200" />
              <mxPoint x="475" y="200" />
              <mxPoint x="475" y="222" />
            </Array>
          </mxGeometry>
        </mxCell>
        <mxCell id="4eg79hw1ZHfpP1PTjSrI-14" value="Position&lt;div&gt;ready&lt;/div&gt;" style="edgeLabel;html=1;align=center;verticalAlign=middle;resizable=0;points=[];" parent="4eg79hw1ZHfpP1PTjSrI-13" vertex="1" connectable="0">
          <mxGeometry x="-0.1733" y="-7" relative="1" as="geometry">
            <mxPoint x="-7" y="-2" as="offset" />
          </mxGeometry>
        </mxCell>
        <mxCell id="4eg79hw1ZHfpP1PTjSrI-23" style="rounded=0;orthogonalLoop=1;jettySize=auto;html=1;entryX=0.558;entryY=0.936;entryDx=0;entryDy=0;endArrow=open;endFill=0;exitX=0.341;exitY=0.062;exitDx=0;exitDy=0;exitPerimeter=0;entryPerimeter=0;" parent="1" source="4eg79hw1ZHfpP1PTjSrI-8" target="4eg79hw1ZHfpP1PTjSrI-9" edge="1">
          <mxGeometry relative="1" as="geometry">
            <mxPoint x="345" y="520" as="sourcePoint" />
            <mxPoint x="277" y="520" as="targetPoint" />
          </mxGeometry>
        </mxCell>
        <mxCell id="4eg79hw1ZHfpP1PTjSrI-26" value="Parcel&lt;br&gt;arrived" style="edgeLabel;html=1;align=center;verticalAlign=middle;resizable=0;points=[];" parent="4eg79hw1ZHfpP1PTjSrI-23" vertex="1" connectable="0">
          <mxGeometry x="-0.0136" y="3" relative="1" as="geometry">
            <mxPoint as="offset" />
          </mxGeometry>
        </mxCell>
        <mxCell id="4eg79hw1ZHfpP1PTjSrI-24" style="rounded=0;orthogonalLoop=1;jettySize=auto;html=1;entryX=1;entryY=0.5;entryDx=0;entryDy=0;endArrow=open;endFill=0;exitX=0;exitY=0.5;exitDx=0;exitDy=0;entryPerimeter=0;" parent="1" source="4eg79hw1ZHfpP1PTjSrI-9" target="4eg79hw1ZHfpP1PTjSrI-10" edge="1">
          <mxGeometry relative="1" as="geometry">
            <mxPoint x="214" y="478" as="sourcePoint" />
            <mxPoint x="205" y="432" as="targetPoint" />
          </mxGeometry>
        </mxCell>
        <mxCell id="4eg79hw1ZHfpP1PTjSrI-27" value="Needs&lt;div&gt;Approval&lt;/div&gt;" style="ellipse;whiteSpace=wrap;html=1;aspect=fixed;perimeterSpacing=8;shadow=1;" parent="1" vertex="1">
          <mxGeometry x="276" y="440" width="80" height="80" as="geometry" />
        </mxCell>
        <mxCell id="4eg79hw1ZHfpP1PTjSrI-30" style="rounded=0;orthogonalLoop=1;jettySize=auto;html=1;exitX=0.771;exitY=0.083;exitDx=0;exitDy=0;startArrow=open;startFill=0;endArrow=none;endFill=0;exitPerimeter=0;" parent="1" source="4eg79hw1ZHfpP1PTjSrI-27" edge="1">
          <mxGeometry relative="1" as="geometry">
            <mxPoint x="469" y="492" as="sourcePoint" />
            <mxPoint x="385" y="409" as="targetPoint" />
          </mxGeometry>
        </mxCell>
        <mxCell id="4eg79hw1ZHfpP1PTjSrI-31" value="&lt;div style=&quot;font-size: 11px; text-wrap: nowrap;&quot;&gt;[UnpaidOrders == 0]&lt;/div&gt;" style="text;html=1;align=center;verticalAlign=middle;whiteSpace=wrap;rounded=0;labelBackgroundColor=default;" parent="1" vertex="1">
          <mxGeometry x="391" y="434" width="140" height="30" as="geometry" />
        </mxCell>
        <mxCell id="4eg79hw1ZHfpP1PTjSrI-32" style="rounded=0;orthogonalLoop=1;jettySize=auto;html=1;entryX=0.919;entryY=0.707;entryDx=0;entryDy=0;startArrow=open;startFill=0;endArrow=none;endFill=0;entryPerimeter=0;" parent="1" target="4eg79hw1ZHfpP1PTjSrI-27" edge="1">
          <mxGeometry relative="1" as="geometry">
            <mxPoint x="409" y="520" as="sourcePoint" />
            <mxPoint x="399" y="424" as="targetPoint" />
          </mxGeometry>
        </mxCell>
        <mxCell id="4eg79hw1ZHfpP1PTjSrI-33" value="&lt;span style=&quot;font-size: 11px; text-wrap: nowrap; background-color: rgb(255, 255, 255);&quot;&gt;approved&lt;/span&gt;" style="text;html=1;align=center;verticalAlign=middle;whiteSpace=wrap;rounded=0;" parent="1" vertex="1">
          <mxGeometry x="353" y="483" width="76" height="20" as="geometry" />
        </mxCell>
        <mxCell id="4eg79hw1ZHfpP1PTjSrI-37" style="edgeStyle=orthogonalEdgeStyle;rounded=0;orthogonalLoop=1;jettySize=auto;html=1;exitX=0.5;exitY=0;exitDx=0;exitDy=0;entryX=1;entryY=0;entryDx=0;entryDy=0;curved=1;endArrow=open;endFill=0;" parent="1" source="4eg79hw1ZHfpP1PTjSrI-34" target="4eg79hw1ZHfpP1PTjSrI-2" edge="1">
          <mxGeometry relative="1" as="geometry">
            <Array as="points">
              <mxPoint x="620" y="110" />
              <mxPoint x="374" y="110" />
            </Array>
          </mxGeometry>
        </mxCell>
        <mxCell id="4eg79hw1ZHfpP1PTjSrI-38" value="Order&lt;div&gt;updated&lt;/div&gt;" style="edgeLabel;html=1;align=center;verticalAlign=middle;resizable=0;points=[];" parent="4eg79hw1ZHfpP1PTjSrI-37" vertex="1" connectable="0">
          <mxGeometry x="0.0764" y="-3" relative="1" as="geometry">
            <mxPoint as="offset" />
          </mxGeometry>
        </mxCell>
        <mxCell id="4eg79hw1ZHfpP1PTjSrI-34" value="Faulty" style="ellipse;whiteSpace=wrap;html=1;aspect=fixed;perimeterSpacing=8;fillColor=#f8cecc;strokeColor=#b85450;shadow=1;" parent="1" vertex="1">
          <mxGeometry x="580" y="220" width="80" height="80" as="geometry" />
        </mxCell>
        <mxCell id="4eg79hw1ZHfpP1PTjSrI-35" style="rounded=0;orthogonalLoop=1;jettySize=auto;html=1;entryX=0.949;entryY=0.705;entryDx=0;entryDy=0;startArrow=open;startFill=0;endArrow=none;endFill=0;entryPerimeter=0;" parent="1" target="4eg79hw1ZHfpP1PTjSrI-6" edge="1">
          <mxGeometry relative="1" as="geometry">
            <mxPoint x="570" y="270" as="sourcePoint" />
            <mxPoint x="483" y="312" as="targetPoint" />
          </mxGeometry>
        </mxCell>
        <mxCell id="4eg79hw1ZHfpP1PTjSrI-36" value="&lt;span style=&quot;font-size: 11px; text-wrap: nowrap; background-color: rgb(255, 255, 255);&quot;&gt;invalid Position&amp;nbsp;&lt;/span&gt;&lt;div&gt;&lt;span style=&quot;font-size: 11px; text-wrap: nowrap; background-color: rgb(255, 255, 255);&quot;&gt;found&lt;/span&gt;&lt;/div&gt;" style="text;html=1;align=center;verticalAlign=middle;whiteSpace=wrap;rounded=0;" parent="1" vertex="1">
          <mxGeometry x="499" y="280" width="90" height="30" as="geometry" />
        </mxCell>
        <mxCell id="WcD5eH7aGhHy1FzttI7p-1" value="&lt;font style=&quot;font-size: 18px;&quot;&gt;&lt;b style=&quot;font-size: 18px;&quot;&gt;Bestellstatus:&lt;/b&gt;&lt;/font&gt;" style="text;html=1;align=left;verticalAlign=middle;whiteSpace=wrap;rounded=0;fontSize=18;" parent="1" vertex="1">
          <mxGeometry x="79" y="55" width="132" height="30" as="geometry" />
        </mxCell>
        <mxCell id="WcD5eH7aGhHy1FzttI7p-2" value="&lt;div&gt;Canceled&lt;/div&gt;" style="ellipse;whiteSpace=wrap;html=1;aspect=fixed;perimeterSpacing=8;shadow=1;" parent="1" vertex="1">
          <mxGeometry x="637" y="370" width="80" height="80" as="geometry" />
        </mxCell>
        <mxCell id="WcD5eH7aGhHy1FzttI7p-4" value="" style="points=[[0.145,0.145,0],[0.5,0,0],[0.855,0.145,0],[1,0.5,0],[0.855,0.855,0],[0.5,1,0],[0.145,0.855,0],[0,0.5,0]];shape=mxgraph.bpmn.event;html=1;verticalLabelPosition=bottom;labelBackgroundColor=#ffffff;verticalAlign=top;align=center;perimeter=ellipsePerimeter;outlineConnect=0;aspect=fixed;outline=end;symbol=terminate2;perimeterSpacing=8;shadow=1;" parent="1" vertex="1">
          <mxGeometry x="661" y="515" width="32" height="32" as="geometry" />
        </mxCell>
        <mxCell id="WcD5eH7aGhHy1FzttI7p-5" style="rounded=0;orthogonalLoop=1;jettySize=auto;html=1;entryX=0.5;entryY=0;entryDx=0;entryDy=0;endArrow=open;endFill=0;exitX=0.5;exitY=1;exitDx=0;exitDy=0;entryPerimeter=0;" parent="1" source="WcD5eH7aGhHy1FzttI7p-2" target="WcD5eH7aGhHy1FzttI7p-4" edge="1">
          <mxGeometry relative="1" as="geometry">
            <mxPoint x="182" y="270" as="sourcePoint" />
            <mxPoint x="120" y="270" as="targetPoint" />
          </mxGeometry>
        </mxCell>
        <mxCell id="WcD5eH7aGhHy1FzttI7p-6" style="rounded=0;orthogonalLoop=1;jettySize=auto;html=1;startArrow=open;startFill=0;endArrow=none;endFill=0;" parent="1" edge="1">
          <mxGeometry relative="1" as="geometry">
            <mxPoint x="661" y="365" as="sourcePoint" />
            <mxPoint x="638" y="302" as="targetPoint" />
          </mxGeometry>
        </mxCell>
        <mxCell id="WcD5eH7aGhHy1FzttI7p-7" value="&lt;span style=&quot;font-size: 11px; text-wrap: nowrap; background-color: rgb(255, 255, 255);&quot;&gt;Order&lt;/span&gt;&lt;div&gt;&lt;span style=&quot;font-size: 11px; text-wrap: nowrap; background-color: rgb(255, 255, 255);&quot;&gt;canceled&lt;/span&gt;&lt;/div&gt;" style="text;html=1;align=center;verticalAlign=middle;whiteSpace=wrap;rounded=0;" parent="1" vertex="1">
          <mxGeometry x="535" y="412" width="90" height="30" as="geometry" />
        </mxCell>
        <mxCell id="WcD5eH7aGhHy1FzttI7p-8" style="rounded=0;orthogonalLoop=1;jettySize=auto;html=1;startArrow=open;startFill=0;endArrow=none;endFill=0;entryX=1;entryY=0.5;entryDx=0;entryDy=0;exitX=0;exitY=0.5;exitDx=0;exitDy=0;" parent="1" source="WcD5eH7aGhHy1FzttI7p-2" target="4eg79hw1ZHfpP1PTjSrI-7" edge="1">
          <mxGeometry relative="1" as="geometry">
            <mxPoint x="671" y="375" as="sourcePoint" />
            <mxPoint x="648" y="312" as="targetPoint" />
          </mxGeometry>
        </mxCell>
        <mxCell id="WcD5eH7aGhHy1FzttI7p-9" value="&lt;span style=&quot;font-size: 11px; text-wrap: nowrap; background-color: rgb(255, 255, 255);&quot;&gt;Order&lt;/span&gt;&lt;div&gt;&lt;span style=&quot;font-size: 11px; text-wrap: nowrap; background-color: rgb(255, 255, 255);&quot;&gt;canceled&lt;/span&gt;&lt;/div&gt;" style="text;html=1;align=center;verticalAlign=middle;whiteSpace=wrap;rounded=0;" parent="1" vertex="1">
          <mxGeometry x="620" y="312" width="90" height="30" as="geometry" />
        </mxCell>
        <mxCell id="4eg79hw1ZHfpP1PTjSrI-28" value="&lt;div style=&quot;font-size: 11px; text-wrap: nowrap;&quot;&gt;[unpaidOrders != 0]&lt;/div&gt;" style="text;html=1;align=center;verticalAlign=middle;whiteSpace=wrap;rounded=0;labelBackgroundColor=default;" parent="1" vertex="1">
          <mxGeometry x="269" y="404" width="140" height="30" as="geometry" />
        </mxCell>
        <mxCell id="cFdiFubl1ey48IqfDJx0-1" value="&lt;div&gt;In Payment Check&lt;/div&gt;" style="ellipse;whiteSpace=wrap;html=1;aspect=fixed;perimeterSpacing=8;shadow=1;" vertex="1" parent="1">
          <mxGeometry x="380" y="338" width="80" height="80" as="geometry" />
        </mxCell>
        <mxCell id="cFdiFubl1ey48IqfDJx0-2" style="rounded=0;orthogonalLoop=1;jettySize=auto;html=1;exitX=0.637;exitY=0.044;exitDx=0;exitDy=0;startArrow=open;startFill=0;endArrow=none;endFill=0;exitPerimeter=0;" edge="1" parent="1" source="cFdiFubl1ey48IqfDJx0-1">
          <mxGeometry relative="1" as="geometry">
            <mxPoint x="401" y="338" as="sourcePoint" />
            <mxPoint x="444" y="307" as="targetPoint" />
          </mxGeometry>
        </mxCell>
        <mxCell id="cFdiFubl1ey48IqfDJx0-3" value="&lt;span style=&quot;forced-color-adjust: none; color: rgb(0, 0, 0); font-family: Helvetica; font-style: normal; font-variant-ligatures: normal; font-variant-caps: normal; font-weight: 400; letter-spacing: normal; orphans: 2; text-indent: 0px; text-transform: none; widows: 2; word-spacing: 0px; -webkit-text-stroke-width: 0px; white-space: nowrap; text-decoration-thickness: initial; text-decoration-style: initial; text-decoration-color: initial; font-size: 11px;&quot;&gt;all Positions&lt;/span&gt;&lt;div&gt;&lt;span style=&quot;forced-color-adjust: none; color: rgb(0, 0, 0); font-family: Helvetica; font-style: normal; font-variant-ligatures: normal; font-variant-caps: normal; font-weight: 400; letter-spacing: normal; orphans: 2; text-indent: 0px; text-transform: none; widows: 2; word-spacing: 0px; -webkit-text-stroke-width: 0px; white-space: nowrap; text-decoration-thickness: initial; text-decoration-style: initial; text-decoration-color: initial; font-size: 11px;&quot;&gt;ready&lt;/span&gt;&lt;br class=&quot;Apple-interchange-newline&quot;&gt;&lt;/div&gt;" style="text;whiteSpace=wrap;html=1;align=center;" vertex="1" parent="1">
          <mxGeometry x="376" y="294" width="62" height="36" as="geometry" />
        </mxCell>
      </root>
    </mxGraphModel>
  </diagram>
</mxfile>
